<svg id="Layer_1" viewBox="0 0 512 512" xmlns="http://www.w3.org/2000/svg" data-name="Layer 1"><path d="m93 100h-30a4 4 0 0 0 -4 4v47a4 4 0 0 0 4 4h30a4 4 0 0 1 -4-4v-47a4 4 0 0 1 4-4z" fill="#d4e1f4"/><path d="m46 425v-93.768a88.064 88.064 0 0 0 102.009 73.489 88.011 88.011 0 0 1 0-173.442 88.064 88.064 0 0 0 -102.009 73.489v-218.768a30 30 0 0 1 30-30h-30a30 30 0 0 0 -30 30v339a30 30 0 0 0 30 30h30a30 30 0 0 1 -30-30z" fill="#d4e1f4"/><path d="m496 219h-27v-14.469c0-3.314-2.59-5.531-5.9-5.531h-49.5a10.722 10.722 0 0 0 -11.028 10h-14.3a15.929 15.929 0 0 0 -14.972 10h-29.64c-23.318 0-42.66 18.767-42.66 42.086v82.673a29.968 29.968 0 0 1 -29.92 30.241h-17.08v12h17.08a41.981 41.981 0 0 0 41.92-42.241v-82.673c0-16.7 13.959-30.086 30.661-30.086h29.639a15.929 15.929 0 0 0 14.964 10h14.3a10.722 10.722 0 0 0 11.036 10h49.5a5.867 5.867 0 0 0 5.9-5.939v-14.061h27a6 6 0 0 0 0-12zm-92.537 10h-15.2a4 4 0 1 1 0-8h15.2a11.514 11.514 0 0 0 11.027-10h20.51v28h-20.51a10.72 10.72 0 0 0 -11.027-10zm53.537 10h-10v-28h10z" fill="#1ae5be"/><path d="m496 282h-27v-13.961a5.952 5.952 0 0 0 -5.9-6.039h-49.5a11.515 11.515 0 0 0 -11.028 10h-14.3a15.929 15.929 0 0 0 -14.972 10h-4.237c-23.318 0-42.063 19.275-42.063 42.594v46.383c0 16.7-13.814 30.023-30.517 30.023h-42.483v12h42.483c23.317 0 42.517-18.7 42.517-42.023v-46.383c0-16.7 13.362-30.594 30.064-30.594h4.236a15.929 15.929 0 0 0 14.964 10h14.3c.476 6 5.24 11 11.028 11h49.5c3.313 0 5.9-3.118 5.9-6.432v-14.568h27a6 6 0 0 0 0-12zm-92.537 10h-15.2a4 4 0 1 1 0-8h15.2a10.721 10.721 0 0 0 11.027-10h20.51v29h-20.51c-.476-6-5.24-11-11.027-11zm53.537 11h-10v-29h10z" fill="#1ae5be"/><g fill="#0635c9"><path d="m260 86a36 36 0 0 0 -36-36h-178a36 36 0 0 0 -36 36v339a36 36 0 0 0 36 36h178a36 36 0 0 0 36-36zm-12 339a24 24 0 0 1 -24 24h-178a24 24 0 0 1 -24-24v-339a24 24 0 0 1 24-24h178a24 24 0 0 1 24 24z"/><path d="m50 426.567a6 6 0 0 0 -6 6v6.351a6 6 0 0 0 12 0v-6.351a6 6 0 0 0 -6-6z"/><path d="m84 426.567a6 6 0 0 0 -6 6v6.351a6 6 0 0 0 12 0v-6.351a6 6 0 0 0 -6-6z"/><path d="m118 426.567a6 6 0 0 0 -6 6v6.351a6 6 0 0 0 12 0v-6.351a6 6 0 0 0 -6-6z"/><path d="m152 426.567a6 6 0 0 0 -6 6v6.351a6 6 0 0 0 12 0v-6.351a6 6 0 0 0 -6-6z"/><path d="m186 426.567a6 6 0 0 0 -6 6v6.351a6 6 0 0 0 12 0v-6.351a6 6 0 0 0 -6-6z"/><path d="m226 438.918v-6.351a6 6 0 0 0 -12 0v6.351a6 6 0 0 0 12 0z"/><path d="m182.9 318a15.166 15.166 0 0 0 -11-14.556 40.232 40.232 0 0 0 -75.011 0 15.133 15.133 0 0 0 0 29.112 40.232 40.232 0 0 0 75.011 0 15.166 15.166 0 0 0 11-14.556zm-81.851 3a3 3 0 1 1 0-6h66.7a3 3 0 1 1 0 6zm33.351-31.081a28.233 28.233 0 0 1 23.794 13.081h-47.594a28.241 28.241 0 0 1 23.8-13.081zm0 56.162a28.233 28.233 0 0 1 -23.8-13.081h47.594a28.234 28.234 0 0 1 -23.794 13.081z"/><path d="m216 104a10 10 0 0 0 -10-10h-143a10 10 0 0 0 -10 10v47a10 10 0 0 0 10 10h143a10 10 0 0 0 10-10zm-151 2h139v43h-139z"/><path d="m103.1 175a18 18 0 0 0 0 36h62.6a18 18 0 0 0 0-36zm-5.946 18a6 6 0 0 1 5.946-6h24.9v12h-24.9a6 6 0 0 1 -5.949-6zm74.492 0a6 6 0 0 1 -5.945 6h-25.701v-12h25.7a6 6 0 0 1 5.943 6z"/><path d="m134 265a6 6 0 0 0 6-6v-7a6 6 0 0 0 -12 0v7a6 6 0 0 0 6 6z"/><path d="m134 371a6 6 0 0 0 -6 6v7a6 6 0 0 0 12 0v-7a6 6 0 0 0 -6-6z"/><path d="m200 312h-7a6 6 0 0 0 0 12h7a6 6 0 0 0 0-12z"/><path d="m75 312h-8a6 6 0 0 0 0 12h8a6 6 0 0 0 0-12z"/><path d="m176.1 282.3a5.979 5.979 0 0 0 4.242-1.758l5.132-5.132a6 6 0 0 0 -8.485-8.485l-5.132 5.132a6 6 0 0 0 4.243 10.243z"/><path d="m88.455 355.457-5.132 5.132a6 6 0 1 0 8.485 8.485l5.132-5.132a6 6 0 0 0 -8.485-8.485z"/><path d="m180.339 355.457a6 6 0 1 0 -8.485 8.485l5.132 5.132a6 6 0 0 0 8.485-8.485z"/><path d="m88.455 280.543a6 6 0 0 0 8.485-8.485l-5.132-5.132a6 6 0 0 0 -8.485 8.485z"/><path d="m133.006 224a94 94 0 1 0 94 94 94.106 94.106 0 0 0 -94-94zm0 176a82 82 0 1 1 82-82 82.093 82.093 0 0 1 -82 82z"/><path d="m44 201.913v-75.807a6 6 0 0 0 -12 0v75.807a6 6 0 0 0 12 0z"/><path d="m38 111.726a6 6 0 0 0 6-6v-4.834a6 6 0 0 0 -12 0v4.834a6 6 0 0 0 6 6z"/></g></svg>