<?xml version="1.0" encoding="UTF-8"?>
<svg xmlns="http://www.w3.org/2000/svg" width="512" height="512" viewBox="0 0 128 128"><g><path d="M65.293,42.383c-.008-.009-.019-.014-.027-.023a1.765,1.765,0,0,0-.244-.213l0,0a1.731,1.731,0,0,0-2.036,0l0,0a1.765,1.765,0,0,0-.244.213c-.008.009-.019.014-.027.023L23.082,85.835a1.761,1.761,0,0,0,.611,2.791A34.445,34.445,0,0,1,43.626,112.75H36.75A6.758,6.758,0,0,0,30,119.5v6.75A1.751,1.751,0,0,0,31.75,128h64.5A1.75,1.75,0,0,0,98,126.25V119.5a6.758,6.758,0,0,0-6.75-6.75H84.374a34.436,34.436,0,0,1,19.917-24.117,1.75,1.75,0,0,0,.627-2.8Zm3.741,36.154a4.232,4.232,0,1,1,0,8.463H58.966a4.232,4.232,0,1,1,0-8.463ZM94.5,119.5v5h-61v-5a3.254,3.254,0,0,1,3.25-3.25h54.5A3.254,3.254,0,0,1,94.5,119.5Zm-13.709-6.75H47.209a37.934,37.934,0,0,0-19.948-26.3L62.25,48.079V75.037H58.966a7.732,7.732,0,1,0,0,15.463H69.034a7.732,7.732,0,1,0,0-15.463H65.75V48.079l34.987,38.366A37.92,37.92,0,0,0,80.791,112.75Z"/><path d="M109,20.75H126.25A1.75,1.75,0,0,0,128,19V1.747A1.75,1.75,0,0,0,126.25,0H109a1.75,1.75,0,0,0-1.75,1.75V5.314h-34.2a10.36,10.36,0,0,0-18.1,0h-34.2V1.747A1.751,1.751,0,0,0,19,0H1.75A1.751,1.751,0,0,0,0,1.747V19a1.751,1.751,0,0,0,1.75,1.75H19A1.751,1.751,0,0,0,20.753,19V16.814H28.93A59.217,59.217,0,0,0,5.447,54.874a10.379,10.379,0,1,0,11.488,1.095A47.786,47.786,0,0,1,56.417,17.433a10.326,10.326,0,0,0,15.167,0,47.758,47.758,0,0,1,39.478,38.54,10.371,10.371,0,1,0,11.487-1.1A59.192,59.192,0,0,0,99.07,16.814h8.177V19A1.75,1.75,0,0,0,109,20.75ZM124.5,3.5V17.25H110.747V3.5ZM3.5,17.25V3.5H17.253V17.25Zm6.876,53.625A6.875,6.875,0,1,1,17.251,64,6.883,6.883,0,0,1,10.376,70.875Zm3.346-16.686a10.136,10.136,0,0,0-4.48-.5A55.81,55.81,0,0,1,35.648,16.57a1.75,1.75,0,0,0-.891-3.256h-14v-4.5h33a10,10,0,0,0,.62,5.416A51.281,51.281,0,0,0,13.722,54.189ZM64,17.25a6.875,6.875,0,1,1,6.875-6.875A6.883,6.883,0,0,1,64,17.25Zm53.624,53.625A6.875,6.875,0,1,1,124.5,64,6.883,6.883,0,0,1,117.624,70.875ZM93.242,13.314a1.75,1.75,0,0,0-.89,3.256,55.786,55.786,0,0,1,26.407,37.12,10.135,10.135,0,0,0-4.477.5A51.254,51.254,0,0,0,73.623,14.233a10,10,0,0,0,.621-5.419h33v4.5Z"/></g></svg>
